<svg width="158" height="46" viewBox="0 0 158 46" fill="none" xmlns="http://www.w3.org/2000/svg">
<circle cx="81" cy="19" r="19" fill="#D9D9D9"/>
<circle cx="139" cy="19" r="19" fill="#D9D9D9"/>
<g filter="url(#filter0_d_1531_595)">
<circle cx="23" cy="19" r="19" fill="#D9D9D9"/>
<g clip-path="url(#clip0_1531_595)">
<path d="M33.1623 12.6559C32.3989 12.9936 31.5893 13.2154 30.7603 13.3139C31.634 12.7914 32.288 11.9689 32.6003 10.9999C31.7803 11.4879 30.8813 11.8299 29.9443 12.0149C29.3149 11.3415 28.4807 10.8949 27.5713 10.7445C26.6618 10.5941 25.7282 10.7484 24.9156 11.1834C24.1029 11.6183 23.4567 12.3096 23.0774 13.1497C22.6981 13.9898 22.607 14.9317 22.8183 15.8289C21.1554 15.7456 19.5286 15.3134 18.0436 14.5606C16.5585 13.8077 15.2484 12.751 14.1983 11.4589C13.8266 12.0974 13.6313 12.8232 13.6323 13.5619C13.6323 15.0119 14.3703 16.2929 15.4923 17.0429C14.8283 17.022 14.1789 16.8427 13.5983 16.5199V16.5719C13.5985 17.5376 13.9327 18.4735 14.5441 19.221C15.1556 19.9684 16.0068 20.4814 16.9533 20.6729C16.3369 20.84 15.6906 20.8646 15.0633 20.7449C15.3302 21.5762 15.8503 22.3031 16.5509 22.824C17.2515 23.3449 18.0974 23.6337 18.9703 23.6499C18.1028 24.3313 17.1095 24.8349 16.0472 25.1321C14.9849 25.4293 13.8744 25.5142 12.7793 25.3819C14.691 26.6114 16.9164 27.264 19.1893 27.2619C26.8823 27.2619 31.0893 20.8889 31.0893 15.3619C31.0893 15.1819 31.0843 14.9999 31.0763 14.8219C31.8952 14.2301 32.6019 13.4969 33.1633 12.6569L33.1623 12.6559Z" fill="black"/>
</g>
</g>
<g clip-path="url(#clip1_1531_595)">
<path d="M83 20.5H85.5L86.5 16.5H83V14.5C83 13.47 83 12.5 85 12.5H86.5V9.14C86.174 9.097 84.943 9 83.643 9C80.928 9 79 10.657 79 13.7V16.5H76V20.5H79V29H83V20.5Z" fill="black"/>
</g>
<g clip-path="url(#clip2_1531_595)">
<path d="M129.004 29L130.356 24.032C129.465 22.5049 128.997 20.768 129 19C129 13.477 133.477 9 139 9C144.523 9 149 13.477 149 19C149 24.523 144.523 29 139 29C137.233 29.0029 135.497 28.5352 133.97 27.645L129.004 29ZM135.391 14.308C135.262 14.316 135.136 14.35 135.02 14.408C134.912 14.4694 134.813 14.5462 134.726 14.636C134.606 14.749 134.538 14.847 134.465 14.942C134.095 15.423 133.897 16.0134 133.9 16.62C133.902 17.11 134.03 17.587 134.23 18.033C134.639 18.935 135.312 19.89 136.201 20.775C136.415 20.988 136.624 21.202 136.849 21.401C137.952 22.3725 139.267 23.073 140.689 23.447L141.258 23.534C141.443 23.544 141.628 23.53 141.814 23.521C142.105 23.506 142.39 23.4271 142.647 23.29C142.813 23.202 142.891 23.158 143.03 23.07C143.03 23.07 143.073 23.042 143.155 22.98C143.29 22.88 143.373 22.809 143.485 22.692C143.568 22.606 143.64 22.505 143.695 22.39C143.773 22.227 143.851 21.916 143.883 21.657C143.907 21.459 143.9 21.351 143.897 21.284C143.893 21.177 143.804 21.066 143.707 21.019L143.125 20.758C143.125 20.758 142.255 20.379 141.724 20.137C141.668 20.1126 141.608 20.0987 141.547 20.096C141.479 20.089 141.409 20.0967 141.344 20.1186C141.279 20.1405 141.219 20.1761 141.169 20.223V20.221C141.164 20.221 141.097 20.278 140.374 21.154C140.333 21.2098 140.275 21.2519 140.21 21.2751C140.144 21.2982 140.073 21.3013 140.006 21.284C139.941 21.2666 139.877 21.2445 139.815 21.218C139.691 21.166 139.648 21.146 139.563 21.109L139.558 21.107C138.986 20.8572 138.456 20.5198 137.988 20.107C137.862 19.997 137.745 19.877 137.625 19.761C137.232 19.3842 136.889 18.958 136.605 18.493L136.546 18.398C136.504 18.3342 136.469 18.2653 136.444 18.193C136.406 18.046 136.505 17.928 136.505 17.928C136.505 17.928 136.748 17.662 136.861 17.518C136.955 17.3983 137.043 17.2738 137.124 17.145C137.242 16.955 137.279 16.76 137.217 16.609C136.937 15.925 136.647 15.244 136.349 14.568C136.29 14.434 136.115 14.338 135.956 14.319C135.902 14.313 135.848 14.307 135.794 14.303C135.66 14.2963 135.525 14.2987 135.391 14.308Z" fill="black"/>
</g>
<defs>
<filter id="filter0_d_1531_595" x="0" y="0" width="46" height="46" filterUnits="userSpaceOnUse" color-interpolation-filters="sRGB">
<feFlood flood-opacity="0" result="BackgroundImageFix"/>
<feColorMatrix in="SourceAlpha" type="matrix" values="0 0 0 0 0 0 0 0 0 0 0 0 0 0 0 0 0 0 127 0" result="hardAlpha"/>
<feOffset dy="4"/>
<feGaussianBlur stdDeviation="2"/>
<feComposite in2="hardAlpha" operator="out"/>
<feColorMatrix type="matrix" values="0 0 0 0 0 0 0 0 0 0 0 0 0 0 0 0 0 0 0.25 0"/>
<feBlend mode="normal" in2="BackgroundImageFix" result="effect1_dropShadow_1531_595"/>
<feBlend mode="normal" in="SourceGraphic" in2="effect1_dropShadow_1531_595" result="shape"/>
</filter>
<clipPath id="clip0_1531_595">
<rect width="24" height="24" fill="white" transform="translate(11 7)"/>
</clipPath>
<clipPath id="clip1_1531_595">
<rect width="24" height="24" fill="white" transform="translate(69 7)"/>
</clipPath>
<clipPath id="clip2_1531_595">
<rect width="24" height="24" fill="white" transform="translate(127 7)"/>
</clipPath>
</defs>
</svg>
